<?xml version="1.0" encoding="iso-8859-1"?>
<!-- Generator: Adobe Illustrator 19.0.0, SVG Export Plug-In . SVG Version: 6.00 Build 0)  -->
<svg version="1.1" id="Capa_1" xmlns="http://www.w3.org/2000/svg" xmlns:xlink="http://www.w3.org/1999/xlink" x="0px" y="0px"
	 viewBox="0 0 512 512" style="enable-background:new 0 0 512 512;" xml:space="preserve">
<g>
	<path style="fill:#DB8D07;" d="M208.331,233.931l0.883,0.883c1.766,0.883,3.531,1.766,5.297,2.648c0.883,0,0.883,0.883,1.766,0.883
		c1.766,0.883,3.531,1.766,5.297,2.648c0.883,0,0.883,0.883,1.766,0.883c1.766,0.883,3.531,0.883,5.297,1.766
		c0.883,0,0.883,0,1.766,0.883c1.766,0.883,3.531,0.883,5.297,1.766c0.883,0,0.883,0,1.766,0c1.766,0,3.531,0.883,5.297,0.883h0.883
		c8.828,0.883,17.655,0.883,26.483,0h0.883c1.766,0,3.531-0.883,5.297-0.883c0.883,0,0.883,0,1.766,0
		c1.766,0,3.531-0.883,5.297-1.766c0.883,0,0.883,0,1.766-0.883c1.766-0.883,3.531-0.883,5.297-1.766
		c0.883,0,0.883-0.883,1.766-0.883c1.766-0.883,3.531-1.766,5.297-2.648c0.883,0,0.883-0.883,1.766-0.883
		c1.766-0.883,3.531-1.766,5.297-2.648l0.883-0.883c1.766-0.883,3.531-1.766,5.297-3.531l0,0c1.766-1.766,3.531-2.648,5.297-4.414
		l0,0c30.014-24.717,47.669-61.793,47.669-101.517v-0.883h-26.483c-29.131,0-52.966-23.834-52.966-52.966l-5.297,0.883
		c-6.179,0.883-11.476,2.648-17.655,4.414c-2.648,0.883-5.297,1.766-7.945,2.648s-6.179,1.766-8.828,2.648
		c-3.531,0.883-7.062,2.648-10.593,3.531c-1.766,0.883-4.414,1.766-6.179,2.648c-4.414,1.766-7.945,3.531-11.476,4.414
		c-1.766,0.883-2.648,0.883-4.414,1.766c-4.414,1.766-8.828,3.531-13.241,6.179c-0.883,0-1.766,0.883-2.648,0.883
		c-4.414,2.648-8.828,4.414-14.124,7.062c-0.883,0-0.883,0.883-1.766,0.883c-4.414,2.648-9.71,5.297-14.124,7.945c0,0,0,0-0.883,0
		c-5.297,2.648-9.71,6.179-14.124,8.828c0.883,38.841,17.655,75.034,47.669,99.752l0,0c1.766,1.766,3.531,2.648,5.297,4.414l0,0
		C204.8,231.283,206.566,232.166,208.331,233.931z"/>
	<path style="fill:#DB8D07;" d="M203.034,291.31L256,317.793l52.966-26.483v-8.828v-17.655V230.4
		c-1.766,0.883-3.531,2.648-5.297,3.531l-0.883,0.883c-1.766,0.883-3.531,1.766-5.297,2.648c-0.883,0-0.883,0.883-1.766,0.883
		c-1.766,0.883-3.531,1.766-5.297,2.648c-0.883,0-0.883,0.883-1.766,0.883c-1.766,0.883-3.531,0.883-5.297,1.766
		c-0.883,0-0.883,0-1.766,0.883c-1.766,0.883-3.531,0.883-5.297,1.766c-0.883,0-0.883,0-1.766,0c-1.766,0-3.531,0.883-5.297,0.883
		h-0.883c-8.828,0.883-17.655,0.883-26.483,0h-0.883c-1.766,0-3.531-0.883-5.297-0.883c-0.883,0-0.883,0-1.766,0
		c-1.766,0-3.531-0.883-5.297-1.766c-0.883,0-0.883,0-1.766-0.883c-1.766-0.883-3.531-0.883-5.297-1.766
		c-0.883,0-0.883-0.883-1.766-0.883c-1.766-0.883-3.531-1.766-5.297-2.648c-0.883,0-0.883-0.883-1.766-0.883
		c-1.766-0.883-3.531-1.766-5.297-2.648l-0.883-0.883c-1.766-0.883-3.531-1.766-5.297-3.531v34.428v17.655L203.034,291.31
		L203.034,291.31z"/>
</g>
<path style="fill:#7E3B04;" d="M179.2,108.579c0.883,0,0.883-0.883,1.766-0.883c4.414-2.648,8.828-4.414,14.124-7.062
	c0.883,0,1.766-0.883,2.648-0.883c4.414-1.766,8.828-4.414,13.241-6.179c1.766-0.883,2.648-0.883,4.414-1.766
	c3.531-1.766,7.945-3.531,11.476-4.414c1.766-0.883,4.414-1.766,6.179-2.648c3.531-0.883,7.062-2.648,10.593-3.531
	c2.648-0.883,6.179-1.766,8.828-2.648s5.297-1.766,7.945-2.648c6.179-1.766,11.476-2.648,17.655-4.414l4.414-0.883
	c0,29.131,23.835,52.966,52.966,52.966h26.483h8.828v-8.828C370.759,51.2,319.559,0,256,0S141.241,51.2,141.241,114.759v17.655
	c7.945-5.297,15.007-10.593,22.952-15.007c0,0,0,0,0.883,0C169.49,113.876,174.786,111.228,179.2,108.579z"/>
<path style="fill:#DDDDDB;" d="M423.724,512l-16.772-199.503c-0.883-7.062-6.179-13.241-13.241-15.89l-5.297-0.883l-79.448-13.241
	v8.828v44.138L256,317.793l26.483,114.759L256,467.862l-26.483-35.31L256,317.793l-52.966,17.655V291.31v-8.828l-79.448,13.241
	l-5.297,1.766c-7.062,1.766-12.359,7.945-13.241,15.89l-3.531,41.49c17.655,2.648,30.897,21.186,30.897,43.255
	c0,25.6-17.655,45.903-37.959,44.138l0,0l7.062-87.393L88.276,512H423.724z"/>
<polygon style="fill:#364061;" points="256,467.862 282.483,432.552 256,317.793 229.517,432.552 "/>
<g>
	<path style="fill:#7E3B04;" d="M135.062,305.434l67.972-22.952v-17.655l-72.386,15.89c-4.414,0.883-7.062,4.414-7.062,8.828v7.062
		C123.586,302.786,129.766,307.2,135.062,305.434z"/>
	<path style="fill:#7E3B04;" d="M381.352,280.717l-72.386-15.89v17.655l67.972,22.952c5.297,1.766,11.476-2.648,11.476-7.945v-7.062
		C388.414,285.131,385.766,281.6,381.352,280.717z"/>
	<path style="fill:#7E3B04;" d="M97.103,441.379c19.421,0,35.31-19.421,35.31-44.138c0-22.069-13.241-40.607-30.897-43.255
		l-7.062,87.393C95.338,441.379,96.221,441.379,97.103,441.379z"/>
</g>
<g style="opacity:0.3;enable-background:new    ;">
	<polygon points="308.966,344.276 308.966,300.138 256,317.793 	"/>
</g>
<g style="opacity:0.3;enable-background:new    ;">
	<polygon points="203.034,344.276 256,317.793 203.034,300.138 	"/>
</g>
<g>
	<polygon style="fill:#DDDDDB;" points="308.966,335.448 308.966,291.31 256,317.793 	"/>
	<polygon style="fill:#DDDDDB;" points="203.034,335.448 256,317.793 203.034,291.31 	"/>
</g>
<g style="opacity:0.3;enable-background:new    ;">
	<path d="M303.669,233.931l-0.883,0.883c-1.766,0.883-3.531,1.766-5.297,2.648c-0.883,0-0.883,0.883-1.766,0.883
		c-1.766,0.883-3.531,1.766-5.297,2.648c-0.883,0-0.883,0.883-1.766,0.883c-1.766,0.883-3.531,0.883-5.297,1.766
		c-0.883,0-0.883,0-1.766,0.883c-1.766,0.883-3.531,0.883-5.297,1.766c-0.883,0-0.883,0-1.766,0c-1.766,0-3.531,0.883-5.297,0.883
		h-0.883c-8.828,0.883-17.655,0.883-26.483,0h-0.883c-1.766,0-3.531-0.883-5.297-0.883c-0.883,0-0.883,0-1.766,0
		c-1.766,0-3.531-0.883-5.297-1.766c-0.883,0-0.883,0-1.766-0.883c-1.766-0.883-3.531-0.883-5.297-1.766
		c-0.883,0-0.883-0.883-1.766-0.883c-1.766-0.883-3.531-1.766-5.297-2.648c-0.883,0-0.883-0.883-1.766-0.883
		c-1.766-0.883-3.531-1.766-5.297-2.648l-0.883-0.883c-1.766-0.883-3.531-1.766-5.297-3.531v8.828
		c1.766,0.883,3.531,2.648,5.297,3.531l0.883,0.883c1.766,0.883,3.531,1.766,5.297,2.648c0.883,0,0.883,0.883,1.766,0.883
		c1.766,0.883,3.531,1.766,5.297,2.648c0.883,0,0.883,0.883,1.766,0.883c1.766,0.883,3.531,0.883,5.297,1.766
		c0.883,0,0.883,0,1.766,0.883c1.766,0.883,3.531,0.883,5.297,1.766c0.883,0,0.883,0,1.766,0c1.766,0,3.531,0.883,5.297,0.883h0.883
		c8.828,0.883,17.655,0.883,26.483,0h0.883c1.766,0,3.531-0.883,5.297-0.883c0.883,0,0.883,0,1.766,0
		c1.766,0,3.531-0.883,5.297-1.766c0.883,0,0.883,0,1.766-0.883c1.766-0.883,3.531-0.883,5.297-1.766
		c0.883,0,0.883-0.883,1.766-0.883c1.766-0.883,3.531-1.766,5.297-2.648c0.883,0,0.883-0.883,1.766-0.883
		c1.766-0.883,3.531-1.766,5.297-2.648l0.883-0.883c1.766-0.883,3.531-1.766,5.297-3.531V230.4
		C307.2,231.283,305.434,232.166,303.669,233.931z"/>
</g>
<g style="enable-background:new    ;">
	<g style="opacity:0.3;">
		<polygon points="167.724,512 150.069,512 150.069,370.759 167.724,406.069 		"/>
	</g>
	<g style="opacity:0.3;">
		<polygon points="361.931,512 344.276,512 344.276,406.069 361.931,370.759 		"/>
	</g>
	<g style="opacity:0.3;">
		<rect x="300.138" y="388.414" width="35.31" height="17.655"/>
	</g>
</g>
<g>
</g>
<g>
</g>
<g>
</g>
<g>
</g>
<g>
</g>
<g>
</g>
<g>
</g>
<g>
</g>
<g>
</g>
<g>
</g>
<g>
</g>
<g>
</g>
<g>
</g>
<g>
</g>
<g>
</g>
</svg>
