<svg height="512pt" viewBox="-51 0 512 512" width="512pt" xmlns="http://www.w3.org/2000/svg" xmlns:xlink="http://www.w3.org/1999/xlink"><linearGradient id="a" gradientUnits="userSpaceOnUse" x1="205.115423928" x2="205.115423928" y1="0" y2="511.9999937997"><stop offset="0" stop-color="#2af598"/><stop offset="1" stop-color="#009efd"/></linearGradient><path d="m205.117188 0c-113.101563 0-205.117188 92.015625-205.117188 205.117188v5.667968c0 57.199219 32.792969 123.855469 97.472656 198.113282 46.886719 53.832031 93.121094 91.367187 95.066406 92.941406l12.578126 10.160156 12.574218-10.160156c1.945313-1.570313 48.175782-39.109375 95.066406-92.941406 64.679688-74.257813 97.472657-140.914063 97.472657-198.113282v-5.667968c0-113.101563-92.015625-205.117188-205.113281-205.117188zm165.089843 210.785156c0 96.664063-124.550781 213.679688-165.089843 249.203125-40.554688-35.535156-165.09375-152.542969-165.09375-249.203125v-5.667968c0-91.035157 74.058593-165.09375 165.09375-165.09375 91.03125 0 165.089843 74.058593 165.089843 165.09375zm-166.09375-128.738281c-66.203125 0-120.066406 53.863281-120.066406 120.066406 0 66.207031 53.863281 120.066407 120.066406 120.066407 66.207031 0 120.070313-53.859376 120.070313-120.066407 0-66.203125-53.863282-120.066406-120.070313-120.066406zm77.511719 100.054687h-21.898438c-1.0625-15.542968-3.363281-30.273437-6.769531-43.335937 13.875 10.71875 24.160157 25.875 28.667969 43.335937zm-93.003906 40.023438h30.988281c-2.472656 30.953125-10.277344 50.757812-15.496094 57.9375-5.214843-7.179688-13.023437-26.984375-15.492187-57.9375zm0-40.023438c2.46875-30.953124 10.277344-50.757812 15.492187-57.9375 5.21875 7.179688 13.023438 26.984376 15.496094 57.9375zm-33.351563-43.335937c-3.402343 13.0625-5.703125 27.792969-6.765625 43.335937h-21.902344c4.511719-17.460937 14.796876-32.617187 28.667969-43.335937zm-28.667969 83.359375h21.898438c1.066406 15.546875 3.367188 30.273438 6.769531 43.339844-13.871093-10.722656-24.15625-25.878906-28.667969-43.339844zm126.355469 43.339844c3.402344-13.066406 5.707031-27.792969 6.769531-43.339844h21.898438c-4.507812 17.460938-14.792969 32.617188-28.667969 43.339844zm0 0" fill="url(#a)"/></svg>